<?xml version="1.0" ?><svg data-name="Layer 1" id="Layer_1" viewBox="0 0 64 64" xmlns="http://www.w3.org/2000/svg"><defs><style>.cls-1{fill:none;}</style></defs><title/><path class="cls-1" d="M34.63,31.52a.81.81,0,1,0,.8.8A.8.8,0,0,0,34.63,31.52Z"/><polygon class="cls-1" points="37.36 11.54 31.55 11.54 34.45 4.59 37.36 11.54"/><path class="cls-1" d="M34.63,39.76a.81.81,0,1,0,.8.81A.8.8,0,0,0,34.63,39.76Z"/><path class="cls-1" d="M41.73,13.89a.34.34,0,0,1-.34.34H27.51a.36.36,0,0,1-.35-.34.35.35,0,0,1,.35-.35H41.39A.35.35,0,0,1,41.73,13.89Z"/><path class="cls-1" d="M48.31,54.94A13.83,13.83,0,0,1,46.89,61H22a13.7,13.7,0,0,1,3.55-16.66,12.53,12.53,0,0,0,17.76,0A13.87,13.87,0,0,1,48.31,54.94Z"/><path class="cls-1" d="M40.47,19.56a6,6,0,0,1-10,4.54A6.18,6.18,0,0,1,29,22h5.68a1,1,0,0,0,0-2H28.45c0-.14,0-.29,0-.43a5.93,5.93,0,0,1,1-3.33h2.08a1,1,0,0,0-.93,1v1.37a1,1,0,0,0,2,0V17.21a1,1,0,0,0-.92-1h5.58a1,1,0,0,0-.92,1v1.37a1,1,0,0,0,2,0V17.21a1,1,0,0,0-.92-1h2.06A5.93,5.93,0,0,1,40.47,19.56Z"/><path d="M55.43,20.48l-2.76,0,2.5-2.49a1,1,0,0,0-1.42-1.41L51.26,19l0-2.76a1,1,0,0,0-1-1h0a1,1,0,0,0-1,1L49.29,21l-5.78,5.78a12.6,12.6,0,0,0-2.81-2.2,8,8,0,0,0,1.77-5,8.1,8.1,0,0,0-.76-3.37,2.32,2.32,0,0,0,2-2.3,2.35,2.35,0,0,0-2.34-2.35H39.53L35.38,1.61a1,1,0,0,0-1.85,0l-4.15,9.93H27.51a2.34,2.34,0,0,0-.32,4.65,8,8,0,0,0-.77,3.37c0,.14,0,.29,0,.43h-.62a1,1,0,0,0,0,2h1a7.94,7.94,0,0,0,1.38,2.58,12.57,12.57,0,0,0-4.81,4.95H14.9l-3.26-3.37a1,1,0,1,0-1.44,1.39l1.92,2H8.59a1,1,0,1,0,0,2h3.53l-1.92,2a1,1,0,0,0,0,1.42,1.05,1.05,0,0,0,.7.28,1,1,0,0,0,.72-.31l3.26-3.37h7.63a12.39,12.39,0,0,0-.65,4,12.53,12.53,0,0,0,2.39,7.35A15.79,15.79,0,0,0,20.5,62.48a1.12,1.12,0,0,0,.16.22l.06,0a.86.86,0,0,0,.22.15l.11,0a.92.92,0,0,0,.28,0H47.57a1,1,0,0,0,.29,0l.11,0a1.07,1.07,0,0,0,.22-.15l0,0a1.84,1.84,0,0,0,.17-.22,15.82,15.82,0,0,0-3.78-19.66,12.51,12.51,0,0,0,.15-14.5l5.93-5.92,4.68.08h0a1,1,0,0,0,0-2Zm-21-15.89,2.91,7H31.55Zm-6.94,9.64a.36.36,0,0,1-.35-.34.35.35,0,0,1,.35-.35H41.39a.35.35,0,0,1,0,.69Zm7.12,20.9a2.81,2.81,0,1,1,2.8-2.81A2.8,2.8,0,0,1,34.63,35.13Zm2.8,5.44a2.8,2.8,0,1,1-2.8-2.81A2.81,2.81,0,0,1,37.43,40.57Zm-3-15a6,6,0,0,1-4-1.48A6.18,6.18,0,0,1,29,22h5.68a1,1,0,0,0,0-2H28.45c0-.14,0-.29,0-.43a5.93,5.93,0,0,1,1-3.33h2.08a1,1,0,0,0-.93,1v1.37a1,1,0,0,0,2,0V17.21a1,1,0,0,0-.92-1h5.58a1,1,0,0,0-.92,1v1.37a1,1,0,0,0,2,0V17.21a1,1,0,0,0-.92-1h2.06a5.93,5.93,0,0,1,1,3.33,6,6,0,0,1-6,6ZM48.31,54.94A13.83,13.83,0,0,1,46.89,61H22a13.7,13.7,0,0,1,3.55-16.66,12.53,12.53,0,0,0,17.76,0A13.87,13.87,0,0,1,48.31,54.94Z"/></svg>